<svg width="514" height="745" viewBox="0 0 514 745" fill="none" xmlns="http://www.w3.org/2000/svg">
<path fill-rule="evenodd" clip-rule="evenodd" d="M230.518 66.7766C218.852 57.1984 208.908 46.0651 200.354 36.4877C189.025 23.8037 180.133 13.8486 172.907 13.8486C155.549 35.5644 156.335 101.134 156.687 130.429V130.429V130.43C156.727 133.83 156.762 136.741 156.762 139.039C156.762 141.298 157.076 143.503 157.677 145.654C145.882 189.663 153.712 243.152 167.302 289.608L189.856 243.877C189.856 243.877 179.223 285.626 179.004 329.625C185.866 364.605 181.37 402.625 177.101 438.722C174.629 459.619 172.234 479.871 172.163 498.516C159.037 502.686 145.127 505.098 130.466 505.045C0.731561 504.577 -14.0248 612.727 10.9962 659.826C43.0792 720.22 118.512 762.294 141.782 736.553C165.052 710.812 161.599 652.353 119.829 635.493C78.0591 618.634 74.3809 571.82 143.211 571.742C159.856 571.259 175.452 568 189.945 562.664C207.278 583.952 239.92 596.93 298.764 596.93C540.191 596.93 532.725 543.151 491.13 400.685C484.995 379.672 479.466 353.853 473.475 325.884C473.221 324.697 472.967 323.507 472.711 322.313C472.495 321.308 472.279 320.3 472.063 319.29C468.657 312.066 465.23 304.184 462 296.5C451.129 270.635 391.503 216.346 391.503 216.346L458.727 260.267C449.95 224.485 439.341 188.484 425.038 156.911C425.383 155.335 425.561 153.702 425.561 152.01C425.561 128.551 419.372 9.23055 401.075 0C396.966 0.000368297 390.557 8.68638 381.734 20.6441C371.952 33.9008 359.203 51.1787 343.331 65.1006C329.998 59.5758 315.213 56.5492 298.763 56.5492C271.658 56.5492 249.122 60.2108 230.518 66.7766Z" fill="black"/>
<ellipse class='yellow-eye' cx="236.823" cy="152.268" rx="41.5133" ry="41.0416" transform="rotate(-0.472026 236.823 152.268)" fill="#F0C757"/>
<ellipse class='yellow-eye' cx="340.602" cy="151.413" rx="41.5133" ry="41.0416" transform="rotate(-0.472026 340.602 151.413)" fill="#F0C757"/>
<ellipse class='eye' cx="236.734" cy="152.358" rx="33.4131" ry="33.6804" transform="rotate(-0.472026 236.734 152.358)" fill="black"/>
<ellipse class='eye' cx="340.517" cy="151" rx="33.4131" ry="33.6804" transform="rotate(-0.472026 340.517 151)" fill="black"/>
</svg>
